# xmcd
#
# Track frame offsets: 
#        150
#        11595
#        20829
#        30431
#        40956
#        52197
#        63776
#        73462
#        83329
#        93752
#        105446
#        114436
#        124940
#        135672
#        144809
#        157348
#        168969
#        182027
#        192064
#        203173
#        213799
#        224020
#        236067
#        245859
#
# Disc length: 3398 seconds
#
# Revision: 0
# Processed by: cddbd v1.5.2PL0 Copyright (c) Steve Scherf et al.
# Submitted via: ExactAudioCopy v1.0b3
#
DISCID=570d4418
DTITLE=Hank Locklin - 5 Classic Albums Plus_CD01
DYEAR=2015
DGENRE=Country
TTITLE0=Fraulein
TTITLE1=Lili Marlene
TTITLE2=Foreign Love
TTITLE3=My Wild Irish Rose
TTITLE4=Anna Marie
TTITLE5=Mademoiselle
TTITLE6=Geisha Girl
TTITLE7=Blue Hawaii
TTITLE8=Blue Grass Skirt
TTITLE9=Filipino Baby
TTITLE10=Foreign Love Affair
TTITLE11=Mexicali Rose
TTITLE12=Please Help Me I'm Falling
TTITLE13=My Old Hometown
TTITLE14=(I'm So Tired Of) Goin Home All By Myself
TTITLE15=It's A Little More Like Heaven
TTITLE16=Livin Alone
TTITLE17=Seven Days (Humming Song)
TTITLE18=Send Me The Pillow That You Dream On
TTITLE19=Blues In Advance
TTITLE20=Why Don't You Haul Off And Love Me
TTITLE21=When The Band Plays The Blues
TTITLE22=Hiding In My Heart
TTITLE23=Foreign Car
EXTD=
EXTT0=
EXTT1=
EXTT2=
EXTT3=
EXTT4=
EXTT5=
EXTT6=
EXTT7=
EXTT8=
EXTT9=
EXTT10=
EXTT11=
EXTT12=
EXTT13=
EXTT14=
EXTT15=
EXTT16=
EXTT17=
EXTT18=
EXTT19=
EXTT20=
EXTT21=
EXTT22=
EXTT23=
PLAYORDER=
